# xmcd
#
# Track frame offsets:
#	150
#	17123
#	26001
#	35154
#	56032
#	73143
#	83986
#	98205
#	112477
#	135537
#
# Disc length: 2049
#
# Revision: 1
# Processed by: cddbd v1.5.1PL0 Copyright (c) Steve Scherf et al.
# Submitted via: CDex 1.50beta10
# Normalized: r0:TRMNUM
#
DISCID=9407ff0a
DTITLE=Bill Morris and The All Stars - Volume 1
DYEAR=1900
DGENRE=Country
TTITLE0=Your Cheating Heart
TTITLE1=Schotish
TTITLE2=Put Your Little Foot
TTITLE3=Stardust Waltz
TTITLE4=Rose of Old Pawnee
TTITLE5=Whiskey River
TTITLE6=Somebody Called LA
TTITLE7=Wespthalia Waltz
TTITLE8=Somewhere My Love
TTITLE9=Something
EXTD=
EXTT0=
EXTT1=
EXTT2=
EXTT3=
EXTT4=
EXTT5=
EXTT6=
EXTT7=
EXTT8=
EXTT9=
PLAYORDER=
